<?xml version="1.0" standalone="no"?>
<!DOCTYPE svg PUBLIC "-//W3C//DTD SVG 20010904//EN"
 "http://www.w3.org/TR/2001/REC-SVG-20010904/DTD/svg10.dtd">
<svg version="1.0" xmlns="http://www.w3.org/2000/svg"
 width="512.000000pt" height="512.000000pt" viewBox="0 0 512.000000 512.000000"
 preserveAspectRatio="xMidYMid meet">

<g transform="translate(0.000000,512.000000) scale(0.100000,-0.100000)"
fill="#000000" stroke="none">
<path d="M2380 4662 c-8 -3 -18 -9 -21 -15 -4 -5 -15 -5 -28 3 -17 9 -26 9
-36 0 -8 -7 -19 -9 -25 -5 -11 7 -13 -26 -4 -74 10 -46 20 -37 20 17 -1 44 1
47 24 47 21 0 26 -6 31 -38 9 -55 19 -57 19 -5 0 33 5 48 16 52 25 10 44 -12
44 -50 0 -19 5 -34 10 -34 13 0 13 56 0 79 -11 22 -29 30 -50 23z"/>
<path d="M2490 4660 c0 -6 10 -8 23 -5 15 4 28 1 36 -9 12 -14 10 -16 -17 -16
-33 0 -55 -20 -50 -47 3 -14 14 -18 52 -19 l48 -2 -6 45 c-3 25 -8 49 -12 54
-7 12 -74 11 -74 -1z m66 -51 c9 -16 -21 -43 -40 -36 -21 8 -20 34 2 40 28 8
31 7 38 -4z"/>
<path d="M2630 4644 c0 -12 -3 -36 -6 -53 -4 -20 -3 -31 5 -31 6 0 11 17 11
40 0 29 5 42 21 50 30 16 49 -4 50 -54 l1 -41 10 34 c6 24 6 42 -1 58 -9 20
-17 23 -51 21 -34 -2 -40 -5 -40 -24z"/>
<path d="M2770 4656 c0 -2 7 -23 15 -46 21 -59 19 -80 -5 -80 -11 0 -20 -4
-20 -10 0 -5 9 -10 19 -10 13 0 32 22 60 70 22 39 36 70 31 70 -5 0 -20 -18
-33 -41 l-24 -40 -12 45 c-6 25 -16 46 -21 46 -6 0 -10 -2 -10 -4z"/>
<path d="M2997 4602 c-22 -24 -21 -65 1 -85 21 -19 57 -22 67 -7 4 6 -6 10
-24 10 -24 0 -32 5 -37 25 -3 14 -4 32 0 40 7 18 47 20 64 3 9 -9 12 -8 12 4
0 31 -58 38 -83 10z"/>
<path d="M2054 4553 l-7 -47 -33 39 c-18 22 -36 36 -40 33 -3 -4 12 -28 34
-54 39 -46 45 -74 16 -74 -8 0 -14 -4 -14 -10 0 -14 26 -12 38 3 12 15 31 157
21 157 -4 0 -11 -21 -15 -47z"/>
<path d="M3120 4545 c-15 -52 -4 -75 36 -75 12 0 26 -5 30 -12 7 -11 41 68 43
100 2 27 -15 9 -29 -30 -12 -35 -20 -43 -40 -43 -21 0 -25 5 -25 30 1 17 4 40
9 53 4 12 3 22 -2 22 -5 0 -15 -20 -22 -45z"/>
<path d="M1837 4573 c-6 -10 45 -143 55 -143 5 0 8 11 8 23 0 35 10 39 41 17
15 -11 30 -17 33 -12 3 5 -9 16 -25 26 -26 15 -29 22 -25 49 5 28 3 27 -15
-13 l-22 -44 -19 49 c-22 56 -24 60 -31 48z"/>
<path d="M3268 4505 c-34 -93 -21 -100 15 -7 29 72 31 82 19 82 -4 0 -19 -34
-34 -75z"/>
<path d="M3367 4527 c-4 -11 -12 -15 -19 -11 -8 5 -9 2 -5 -10 4 -9 -1 -32
-10 -50 -18 -39 -12 -66 14 -66 15 0 15 2 4 9 -13 8 -13 15 -2 49 11 33 17 39
35 34 17 -4 19 -3 10 9 -7 8 -14 23 -16 34 -3 19 -4 19 -11 2z"/>
<path d="M2131 4523 c0 -5 4 -17 9 -28 8 -18 9 -17 9 8 1 15 -3 27 -9 27 -5 0
-10 -3 -9 -7z"/>
<path d="M1754 4486 c-27 -21 -7 -52 29 -48 15 2 31 0 37 -3 16 -10 -8 -35
-32 -35 -10 0 -17 -4 -14 -9 4 -5 18 -6 34 -2 20 5 28 15 30 34 3 25 1 27 -37
27 -49 0 -56 23 -13 38 22 9 23 11 6 11 -11 1 -29 -5 -40 -13z"/>
<path d="M3421 4432 c-26 -51 -20 -79 17 -89 15 -3 30 -11 34 -16 5 -8 58 80
58 98 0 16 -18 0 -34 -30 -14 -25 -26 -35 -43 -35 -32 0 -38 21 -18 60 9 17
14 37 12 43 -2 7 -14 -7 -26 -31z"/>
<path d="M2582 4283 c1 -87 3 -142 5 -121 2 20 11 39 19 42 16 6 19 -15 3 -31
-7 -7 -5 -12 9 -15 16 -5 18 -1 15 28 -3 25 0 34 12 34 8 0 15 -5 15 -10 0 -7
6 -7 18 -2 55 29 162 20 162 -13 0 -9 5 -13 10 -10 6 3 10 -1 10 -9 0 -9 5
-16 10 -16 6 0 10 8 10 18 0 14 2 15 9 2 6 -8 7 -18 5 -22 -3 -4 0 -8 5 -8 6
0 11 14 11 30 0 17 5 30 10 30 6 0 10 -4 10 -10 0 -15 27 -12 33 4 3 8 21 16
39 18 25 2 34 8 36 26 3 18 -1 22 -22 22 -14 0 -28 5 -31 10 -13 21 104 0 150
-27 17 -10 16 -12 -20 -19 l-40 -7 34 -9 c22 -6 37 -6 44 1 14 14 57 14 57 1
0 -5 -8 -10 -19 -10 -10 0 -24 -7 -31 -15 -7 -8 -23 -15 -36 -15 -13 0 -24 -4
-24 -9 0 -13 27 -21 48 -15 14 5 15 4 2 -5 -13 -10 -13 -13 4 -26 11 -8 14
-15 7 -15 -6 0 -23 11 -37 25 -14 14 -31 25 -39 25 -18 0 -20 -27 -3 -32 21
-7 -3 -30 -27 -26 -13 3 -34 -1 -46 -8 -24 -12 -24 -12 6 -11 17 1 32 -2 35
-8 7 -14 -49 -19 -65 -5 -10 8 -19 9 -32 1 -15 -9 -15 -10 -2 -11 9 0 29 -15
46 -32 34 -37 70 -68 79 -68 3 0 2 9 -1 20 -5 14 -2 20 9 20 10 0 16 -9 16
-22 0 -13 4 -18 8 -13 4 7 18 0 35 -17 15 -15 26 -28 23 -28 -3 0 6 -16 19
-36 14 -20 22 -40 20 -44 -3 -5 -1 -11 4 -14 8 -5 -14 -37 -61 -87 -9 -10 -18
-33 -21 -51 l-4 -33 -1 37 c-2 31 -5 35 -22 31 -11 -3 -20 -9 -20 -14 0 -5 -5
-9 -11 -9 -7 0 -5 10 6 26 9 14 14 28 11 31 -10 10 -223 12 -282 3 -39 -7 -62
-6 -70 1 -10 8 -12 5 -8 -16 2 -14 0 -34 -6 -43 -10 -15 -11 -14 -7 6 3 12 4
22 2 22 -2 0 -28 -5 -57 -12 -29 -6 -59 -11 -65 -9 -10 1 -13 -58 -13 -269 0
-202 3 -269 12 -264 13 9 123 17 238 18 60 1 98 -4 129 -17 36 -15 49 -16 78
-6 19 6 43 9 54 6 12 -3 19 0 19 9 0 8 9 14 20 14 20 0 70 43 70 60 0 6 5 10
11 10 6 0 8 -7 5 -15 -3 -8 -9 -22 -12 -30 -6 -14 12 -21 39 -16 14 2 39 -28
32 -39 -3 -5 -1 -10 4 -10 6 0 11 11 11 25 0 30 24 33 53 8 19 -17 20 -17 14
0 -4 9 -2 17 3 17 6 0 10 -8 10 -17 1 -17 1 -17 14 -1 7 10 16 15 19 11 4 -3
7 3 7 14 0 12 7 23 14 26 15 6 12 -15 -4 -38 -18 -24 -21 -55 -7 -55 21 0 68
-26 60 -33 -3 -4 8 -7 25 -7 17 0 34 -4 37 -10 9 -14 21 -12 39 6 9 8 20 13
25 10 5 -3 7 3 4 13 -3 10 0 28 6 39 8 15 8 21 -1 24 -6 2 5 12 24 21 20 9 43
14 51 11 19 -7 30 25 21 60 -6 26 11 60 26 51 7 -5 -2 -74 -15 -107 -4 -9 -1
-27 7 -41 l13 -24 100 19 c124 23 294 34 332 21 15 -5 42 -6 60 -3 30 7 33 5
44 -29 7 -20 14 -31 16 -24 11 30 -91 268 -175 408 -41 69 -132 192 -186 250
-30 33 -39 37 -46 25 -8 -12 -10 -12 -10 -1 0 7 -6 11 -15 7 -8 -3 -14 -1 -12
4 1 5 -7 16 -18 24 -18 14 -18 15 -2 16 10 0 20 -6 23 -14 3 -8 12 -17 20 -20
39 -15 -39 68 -156 167 -287 243 -617 381 -995 417 -60 5 -116 10 -122 10 -10
0 -13 -37 -11 -157z m313 16 c-18 -5 -33 -5 -39 1 -7 7 4 10 30 9 39 -1 39 -1
9 -10z m-187 -18 c10 -6 7 -10 -13 -15 -14 -4 -30 -4 -36 0 -5 3 -16 0 -24 -6
-12 -10 -15 -9 -15 3 0 21 63 34 88 18z m57 -11 c-3 -5 -11 -10 -16 -10 -6 0
-7 5 -4 10 3 6 11 10 16 10 6 0 7 -4 4 -10z m-163 -22 c-7 -7 -12 -8 -12 -2 0
6 3 14 7 17 3 4 9 5 12 2 2 -3 -1 -11 -7 -17z m216 5 c-10 -2 -26 -2 -35 0
-10 3 -2 5 17 5 19 0 27 -2 18 -5z m82 -13 c8 -5 11 -10 5 -10 -5 0 -17 5 -25
10 -8 5 -10 10 -5 10 6 0 17 -5 25 -10z m582 -161 c61 -42 78 -49 104 -44 22
4 35 1 45 -11 12 -15 11 -16 -8 -10 -18 6 -21 4 -16 -16 11 -51 103 -248 116
-248 5 0 6 -7 3 -16 -4 -9 0 -27 8 -39 11 -17 21 -21 42 -17 19 3 25 1 20 -7
-4 -6 -13 -11 -20 -11 -32 0 -48 -99 -21 -134 20 -26 19 -70 -1 -87 -14 -12
-14 -14 6 -21 12 -4 18 -12 15 -18 -8 -12 -52 -13 -59 -1 -3 5 -18 12 -33 16
-80 20 -65 135 19 135 31 0 36 11 13 30 -12 10 -15 10 -15 -4 0 -9 -8 -16 -20
-16 -13 0 -20 7 -20 19 0 11 -4 23 -10 26 -5 3 -10 -3 -10 -14 l0 -21 -20 20
c-12 12 -25 18 -30 15 -6 -3 -7 1 -4 9 3 9 1 16 -5 16 -6 0 -11 -6 -12 -12 0
-12 -17 18 -18 34 -2 13 33 -5 47 -24 16 -22 36 -24 28 -3 -3 8 -1 15 3 15 5
0 12 -6 14 -12 4 -8 6 -7 6 3 1 18 -25 33 -39 24 -5 -3 -12 0 -16 6 -5 8 -3 9
6 4 8 -5 11 -4 6 3 -4 6 -14 8 -23 5 -12 -5 -14 -3 -8 7 6 10 1 12 -23 7 -27
-6 -32 -4 -32 13 0 11 1 23 3 26 1 3 -6 10 -16 15 -9 6 -14 15 -11 21 4 6 3 8
-3 5 -5 -4 -16 6 -24 21 -8 15 -22 33 -32 41 -13 9 -17 21 -13 37 4 15 2 24
-5 24 -6 0 -8 7 -5 17 4 10 4 14 0 10 -4 -3 -17 16 -30 43 -17 37 -27 48 -39
44 -11 -4 -14 -2 -9 9 3 8 1 18 -5 22 -14 8 -14 25 -2 25 14 0 61 45 61 59 0
19 16 12 92 -40z m-118 -308 c3 -5 -1 -11 -9 -14 -9 -4 -12 -1 -8 9 6 16 10
17 17 5z m-591 -55 c9 -7 31 -12 47 -10 28 3 30 1 30 -27 0 -18 4 -28 10 -24
6 3 10 15 10 26 0 10 4 19 9 19 13 0 0 -53 -20 -79 l-19 -24 0 39 c0 27 -3 35
-9 25 -7 -11 -10 -9 -13 10 -3 21 -8 24 -40 22 -32 -2 -38 1 -38 17 0 23 8 25
33 6z m673 -5 c-4 -5 0 -12 6 -14 8 -3 6 -6 -4 -6 -18 -1 -24 10 -11 22 9 10
15 8 9 -2z m41 3 c-3 -3 -12 -4 -19 -1 -8 3 -5 6 6 6 11 1 17 -2 13 -5z m-787
-14 c0 -5 -4 -10 -10 -10 -5 0 -10 5 -10 10 0 6 5 10 10 10 6 0 10 -4 10 -10z
m283 -8 c2 7 8 9 13 5 5 -4 3 -11 -3 -15 -6 -4 -13 -16 -16 -27 -4 -19 -5 -19
-6 1 0 12 -8 25 -17 28 -8 3 -12 11 -8 17 5 9 11 7 20 -5 9 -13 13 -14 17 -4z
m76 -27 c0 -5 -4 -3 -9 5 -9 13 -12 12 -25 -4 -8 -11 -18 -16 -22 -11 -5 4 -3
10 4 12 7 2 9 12 6 20 -5 12 -2 15 10 10 10 -4 17 -1 18 6 0 13 17 -21 18 -38z
m-119 -1 c0 -8 -4 -14 -10 -14 -5 0 -10 4 -10 9 0 5 -3 18 -7 28 -6 16 -5 16
10 4 9 -7 17 -20 17 -27z m280 16 c0 -5 -4 -10 -10 -10 -5 0 -10 5 -10 10 0 6
5 10 10 10 6 0 10 -4 10 -10z m-415 -30 c-4 -12 -9 -19 -12 -17 -3 3 -2 15 2
27 4 12 9 19 12 17 3 -3 2 -15 -2 -27z m705 20 c0 -5 -4 -10 -10 -10 -5 0 -10
5 -10 10 0 6 5 10 10 10 6 0 10 -4 10 -10z m-260 -21 c0 -6 -4 -7 -10 -4 -5 3
-10 11 -10 16 0 6 5 7 10 4 6 -3 10 -11 10 -16z m-301 -33 c-9 -8 -10 -7 -5 7
3 10 7 24 7 30 1 7 3 4 6 -7 3 -10 -1 -23 -8 -30z m-276 27 c-7 -2 -19 -2 -25
0 -7 3 -2 5 12 5 14 0 19 -2 13 -5z m252 -12 c3 -5 1 -12 -5 -16 -5 -3 -10 1
-10 9 0 18 6 21 15 7z m71 -36 c-9 -9 -17 -11 -21 -5 -3 5 -1 10 4 10 6 0 11
10 11 23 1 20 2 20 11 4 7 -13 6 -21 -5 -32z m-174 3 c-8 -8 -9 -4 -5 13 4 13
8 18 11 10 2 -7 -1 -18 -6 -23z m431 -8 c-7 -8 -22 24 -16 34 4 5 10 1 13 -10
4 -10 6 -21 3 -24z m206 -21 c11 -11 27 -19 35 -19 26 0 46 -12 46 -26 0 -8 9
-24 20 -36 l20 -22 0 41 c0 27 5 43 15 47 10 3 15 -1 16 -14 1 -11 3 -35 4
-52 3 -52 -5 -78 -25 -78 -10 0 -21 -6 -23 -12 -4 -10 -7 -10 -15 0 -5 7 -24
13 -43 12 -53 0 -69 2 -69 13 0 6 -5 5 -12 -1 -7 -5 -47 -12 -90 -15 -42 -2
-81 -8 -87 -11 -5 -4 -30 -9 -55 -11 -36 -4 -46 -2 -46 10 0 8 -8 15 -18 15
-12 0 -24 19 -41 66 -13 36 -21 68 -18 71 13 12 35 -7 40 -36 8 -39 19 -39 34
-1 6 16 20 33 30 36 28 9 54 20 98 39 22 10 48 19 57 20 10 1 21 4 24 7 8 9
80 -22 103 -43z m-759 -49 c0 -25 4 -30 24 -30 19 0 25 6 28 27 2 17 10 29 21
31 15 3 17 -5 17 -67 0 -66 -2 -71 -21 -71 -17 0 -20 5 -17 25 5 22 2 25 -23
25 -24 0 -29 -4 -29 -25 0 -16 -6 -25 -15 -25 -12 0 -15 14 -15 70 0 56 3 70
15 70 10 0 15 -10 15 -30z m210 -36 c16 -37 30 -68 30 -70 0 -2 -9 -4 -20 -4
-11 0 -20 7 -20 15 0 10 -10 15 -30 15 -20 0 -30 -5 -30 -15 0 -8 -9 -15 -20
-15 -11 0 -20 2 -20 5 0 17 61 135 69 135 6 0 24 -30 41 -66z m141 45 c13 -21
11 -57 -3 -62 -10 -3 -10 -9 0 -26 16 -27 15 -31 -3 -31 -8 0 -20 9 -27 20 -7
11 -18 20 -25 20 -7 0 -13 -9 -13 -20 0 -11 -7 -20 -15 -20 -12 0 -15 15 -15
71 l0 72 46 -6 c26 -2 50 -11 55 -18z m406 -241 c-3 -8 -6 -5 -6 6 -1 11 2 17
5 13 3 -3 4 -12 1 -19z m55 -14 c-6 -11 -11 -13 -16 -5 -4 6 -2 11 3 11 6 0
11 8 12 18 0 9 3 12 5 5 3 -7 1 -20 -4 -29z m187 0 c8 -7 -22 -34 -38 -33 -13
1 -13 2 2 6 9 2 17 8 17 13 0 5 -8 14 -17 20 -15 9 -14 10 7 4 14 -3 27 -8 29
-10z m-348 -27 c-16 -16 -26 0 -10 19 9 11 15 12 17 4 2 -6 -1 -17 -7 -23z
m-81 -12 c0 -8 -4 -15 -10 -15 -5 0 -10 7 -10 15 0 8 5 15 10 15 6 0 10 -7 10
-15z m-135 -5 c3 -6 -1 -7 -9 -4 -18 7 -21 14 -7 14 6 0 13 -4 16 -10z m-518
-26 c-3 -3 -12 -4 -19 -1 -8 3 -5 6 6 6 11 1 17 -2 13 -5z m848 -23 c3 -5 1
-12 -5 -16 -5 -3 -10 1 -10 9 0 18 6 21 15 7z"/>
<path d="M3674 3495 c-9 -23 3 -45 25 -45 26 0 34 15 21 40 -13 24 -38 26 -46
5z"/>
<path d="M2860 3475 c0 -8 5 -15 10 -15 6 0 10 7 10 15 0 8 -4 15 -10 15 -5 0
-10 -7 -10 -15z"/>
<path d="M2980 3501 c0 -22 16 -27 40 -11 17 10 14 15 -17 24 -19 6 -23 3 -23
-13z"/>
<path d="M1560 4380 c-22 -41 10 -90 58 -90 21 0 59 36 49 47 -4 4 -13 0 -20
-9 -18 -22 -44 -29 -56 -14 -8 9 -2 17 24 29 37 18 46 41 19 51 -31 12 -63 6
-74 -14z m67 -6 c2 -6 -8 -16 -22 -22 -33 -15 -35 -15 -35 1 0 31 48 48 57 21z"/>
<path d="M3564 4363 c-32 -43 -46 -73 -35 -73 5 0 18 14 28 30 13 22 25 30 48
31 22 1 24 3 8 6 -12 2 -23 11 -25 20 -2 11 -9 7 -24 -14z"/>
<path d="M1448 4310 c-7 -11 -19 -20 -26 -20 -8 0 -1 -17 18 -45 38 -55 56
-59 27 -7 -38 71 12 104 54 35 13 -20 25 -31 27 -24 6 18 -47 81 -68 81 -11 0
-25 -9 -32 -20z"/>
<path d="M3635 4295 c-14 -13 -25 -30 -25 -37 0 -25 31 -58 53 -58 20 1 20 2
-5 16 -16 8 -28 23 -28 34 0 25 8 25 40 0 37 -29 50 -25 50 15 0 29 -5 37 -26
45 -33 13 -31 14 -59 -15z m63 -7 c15 -15 16 -38 0 -38 -14 0 -48 30 -48 42 0
12 34 10 48 -4z"/>
<path d="M3060 4250 c0 -5 15 -10 33 -9 27 0 29 2 12 9 -28 12 -45 12 -45 0z"/>
<path d="M1314 4206 c-13 -22 -14 -29 -2 -53 25 -52 108 -35 108 22 0 53 -77
75 -106 31z m67 4 c23 -13 25 -56 3 -68 -43 -24 -88 36 -49 65 22 16 21 16 46
3z"/>
<path d="M3757 4216 c-3 -8 -1 -28 6 -45 16 -43 0 -52 -29 -16 -26 33 -33 23
-8 -13 21 -31 64 -30 64 1 0 13 -5 28 -11 34 -7 7 -8 20 -5 30 7 17 9 16 27
-6 23 -28 36 -22 17 8 -15 24 -53 28 -61 7z"/>
<path d="M3075 4200 l-40 -7 43 -2 c23 0 42 4 42 9 0 6 -1 9 -2 9 -2 -1 -21
-5 -43 -9z"/>
<path d="M3008 4183 c7 -3 16 -2 19 1 4 3 -2 6 -13 5 -11 0 -14 -3 -6 -6z"/>
<path d="M2580 4105 c0 -8 7 -15 15 -15 8 0 15 4 15 9 0 5 -7 11 -15 15 -9 3
-15 0 -15 -9z"/>
<path d="M2940 4095 c-20 -11 -21 -14 -7 -15 10 0 25 7 33 15 19 19 7 19 -26
0z"/>
<path d="M2581 4023 c1 -17 3 -21 6 -10 2 9 9 17 14 17 5 0 9 5 9 10 0 6 -7
10 -15 10 -10 0 -15 -9 -14 -27z"/>
<path d="M2920 4040 c8 -5 20 -10 25 -10 6 0 3 5 -5 10 -8 5 -19 10 -25 10 -5
0 -3 -5 5 -10z"/>
<path d="M2958 4004 c19 -9 14 -24 -5 -18 -14 5 -15 4 -4 -4 8 -6 10 -15 5
-23 -6 -11 -3 -10 10 1 16 13 20 12 31 -3 14 -19 30 -24 19 -5 -5 8 -2 9 9 5
10 -3 17 -3 17 2 0 15 -35 39 -65 45 -16 3 -24 3 -17 0z"/>
<path d="M2910 3970 c-12 -8 -10 -10 8 -10 13 0 20 4 17 10 -7 12 -6 12 -25 0z"/>
<path d="M2384 3960 c-23 -9 -38 -36 -28 -51 8 -13 -23 -23 -43 -13 -10 4 -24
6 -32 5 -8 -2 -25 3 -37 10 -18 9 -27 9 -38 0 -10 -8 -16 -9 -21 -1 -3 5 -1
10 6 10 7 0 10 2 8 5 -3 2 -21 0 -41 -6 -28 -7 -38 -16 -43 -37 -4 -19 -18
-32 -44 -44 -21 -10 -42 -18 -47 -18 -5 0 -15 -9 -21 -19 -7 -11 -28 -24 -48
-31 -38 -12 -71 -7 -60 10 10 16 -7 12 -27 -7 -15 -13 -21 -14 -27 -5 -9 15
-102 23 -117 11 -7 -6 -21 -5 -37 2 -23 10 -28 9 -51 -17 -14 -16 -26 -32 -26
-36 0 -4 -11 -19 -24 -33 -22 -24 -27 -25 -71 -15 -34 8 -57 8 -81 0 -19 -6
-44 -11 -56 -10 -13 1 -27 1 -33 0 -5 -1 -22 -1 -36 0 -17 1 -29 -5 -33 -17
-7 -18 -8 -25 -3 -21 1 1 13 -5 27 -12 25 -14 25 -14 -20 -26 -37 -9 -42 -13
-25 -19 37 -15 46 -26 34 -41 -9 -11 -6 -16 14 -23 14 -5 28 -14 31 -20 6 -10
113 -37 130 -32 4 1 14 -3 22 -9 7 -7 26 -10 41 -9 15 2 33 0 39 -4 7 -4 27
-9 45 -11 19 -3 46 -9 60 -15 15 -5 30 -7 33 -4 3 4 7 -7 7 -23 1 -22 3 -24 6
-7 6 30 43 27 43 -3 0 -16 8 -24 28 -28 15 -4 35 -9 45 -12 12 -4 17 0 17 15
0 34 19 33 22 -1 4 -29 5 -30 13 -13 11 24 35 50 35 38 0 -5 -7 -18 -15 -29
-23 -30 -18 -54 5 -25 11 13 20 17 20 10 0 -10 5 -9 17 3 15 16 17 16 29 0 11
-15 13 -14 25 10 6 15 16 25 21 22 4 -3 6 -10 3 -15 -3 -5 3 -18 13 -30 14
-14 22 -17 27 -9 5 7 10 8 14 3 12 -19 59 -24 75 -8 9 9 17 11 21 5 9 -14 55
-12 60 3 3 7 23 12 53 11 26 -1 53 4 61 10 12 9 13 5 9 -22 -5 -34 0 -39 21
-19 10 10 12 9 10 -3 -1 -8 1 -23 5 -32 9 -20 71 -14 100 11 21 18 25 18 37
-1 5 -7 9 79 9 199 0 196 -1 211 -17 207 -10 -3 -33 5 -51 16 -29 18 -32 23
-21 37 15 17 18 50 7 75 -5 9 -4 20 2 23 5 3 10 17 10 31 0 13 5 24 10 24 6 0
10 14 10 30 0 19 -5 30 -14 30 -7 0 -19 7 -26 15 -14 17 -34 18 -66 5z m-224
-79 c0 -17 -12 -41 -21 -41 -5 0 -9 11 -9 25 0 16 6 25 15 25 8 0 15 -4 15 -9z"/>
<path d="M2970 3946 c0 -2 7 -9 15 -16 13 -11 14 -10 9 4 -5 14 -24 23 -24 12z"/>
<path d="M1995 3829 c-4 -6 -5 -12 -2 -15 2 -3 7 2 10 11 7 17 1 20 -8 4z"/>
<path d="M1938 3823 c7 -3 16 -2 19 1 4 3 -2 6 -13 5 -11 0 -14 -3 -6 -6z"/>
<path d="M1073 3648 c-45 -60 -125 -195 -147 -249 -14 -34 -14 -36 5 -34 11 1
93 -11 182 -27 89 -15 171 -27 182 -27 l20 0 -20 9 c-11 5 -14 9 -6 9 11 1 11
4 1 16 -10 12 -9 15 6 15 11 0 -12 15 -51 33 -73 34 -155 102 -155 127 0 8 14
28 31 44 l30 30 -26 23 c-27 26 -32 52 -13 71 7 7 9 12 6 12 -3 0 -23 -24 -45
-52z"/>
<path d="M1328 3303 c6 -2 18 -2 25 0 6 3 1 5 -13 5 -14 0 -19 -2 -12 -5z"/>
<path d="M2531 3204 c0 -11 3 -14 6 -6 3 7 2 16 -1 19 -3 4 -6 -2 -5 -13z"/>
<path d="M2511 3194 c0 -11 3 -14 6 -6 3 7 2 16 -1 19 -3 4 -6 -2 -5 -13z"/>
<path d="M2755 3183 c-38 -8 -100 -37 -118 -55 -31 -31 -16 -42 52 -39 39 2
70 -3 84 -11 15 -9 59 -13 146 -13 121 0 124 1 127 23 2 12 -1 22 -6 22 -9 0
-66 36 -80 50 -20 21 -149 35 -205 23z"/>
<path d="M3140 3181 c0 -6 5 -13 10 -16 6 -3 10 1 10 9 0 9 -4 16 -10 16 -5 0
-10 -4 -10 -9z"/>
<path d="M4236 3164 c-3 -8 -2 -12 4 -9 6 3 10 1 10 -5 0 -6 4 -9 10 -5 10 6
2 35 -10 35 -4 0 -11 -7 -14 -16z"/>
<path d="M2583 3034 c-3 -8 -1 -25 5 -37 10 -20 11 -18 11 16 1 39 -5 48 -16
21z"/>
<path d="M3923 3013 c9 -2 23 -2 30 0 6 3 -1 5 -18 5 -16 0 -22 -2 -12 -5z"/>
<path d="M4037 3013 c-9 -2 -15 -8 -12 -13 5 -8 -87 -40 -114 -40 -6 0 -11 -4
-11 -10 0 -11 62 -29 105 -31 17 -1 41 -5 55 -9 25 -8 25 -8 -7 -15 -44 -10
-42 -25 5 -27 20 -1 -12 -5 -73 -8 -85 -5 -55 -6 134 -8 l243 -2 -7 48 c-3 26
-10 63 -15 82 -9 34 -10 35 -55 32 -30 -3 -45 -9 -45 -18 0 -8 -7 -14 -15 -14
-18 0 -20 20 -2 21 6 1 1 5 -13 9 -27 9 -144 11 -173 3z"/>
<path d="M779 2973 c-4 -12 -11 -45 -15 -73 l-7 -50 892 -2 891 -3 0 73 0 73
-157 -3 c-120 -2 -157 -6 -156 -15 2 -8 -8 -13 -25 -12 -15 0 -21 3 -14 6 15
6 6 23 -13 23 -7 0 -18 -13 -24 -30 -5 -16 -13 -30 -17 -30 -3 0 -4 14 0 30 5
29 4 30 -29 30 -27 0 -35 -4 -35 -17 0 -12 -3 -14 -8 -6 -5 8 -12 2 -21 -18
-16 -38 -30 -37 -29 1 1 40 -3 43 -50 35 -26 -4 -43 -14 -51 -28 -11 -22 -11
-22 -8 3 2 23 -2 25 -40 28 -34 2 -43 0 -43 -12 0 -9 -7 -16 -15 -16 -8 0 -15
7 -15 16 0 23 -44 14 -51 -11 -3 -11 -11 -19 -18 -17 -7 1 -22 -7 -32 -19 -15
-17 -19 -19 -19 -6 0 9 4 18 9 21 5 3 7 15 4 26 -5 18 -14 20 -94 20 -78 0
-90 -2 -99 -20 -14 -26 -30 -26 -23 0 5 18 2 20 -33 15 -35 -4 -73 -25 -46
-25 7 0 12 -4 12 -9 0 -11 -47 -7 -58 4 -4 5 0 6 9 2 13 -4 16 -1 12 13 -5 18
-20 20 -290 22 l-285 3 -9 -22z m879 -4 c-2 -6 -7 -10 -12 -9 -5 1 -13 -4 -17
-12 -7 -10 -9 -10 -9 0 0 6 -5 12 -11 12 -6 0 -8 -9 -4 -22 5 -19 4 -20 -5 -6
-5 9 -8 22 -5 30 6 15 68 22 63 7z m-211 -21 c2 -21 1 -22 -9 -4 -8 15 -12 16
-19 5 -7 -11 -9 -10 -9 4 0 26 35 22 37 -5z m412 0 c-17 -34 -19 -34 -17 -5 1
15 8 27 16 27 10 0 10 -5 1 -22z m111 1 c0 -5 -4 -9 -10 -9 -5 0 -10 6 -10 13
0 8 -4 7 -10 -3 -5 -8 -10 -10 -10 -4 0 6 3 13 6 17 8 8 34 -3 34 -14z m-380
-26 c-1 -11 -26 -43 -33 -43 -4 0 -1 11 5 25 10 23 28 35 28 18z m337 -25 c-3
-7 -5 -2 -5 12 0 14 2 19 5 13 2 -7 2 -19 0 -25z"/>
<path d="M2954 2701 c-55 -25 -74 -55 -74 -114 0 -66 32 -96 134 -125 64 -19
77 -26 82 -48 4 -15 2 -30 -5 -37 -19 -19 -92 -12 -140 13 l-44 22 -19 -23
c-25 -34 -19 -50 30 -77 51 -28 136 -39 185 -23 75 25 112 97 83 164 -18 43
-55 69 -134 92 -64 19 -87 40 -76 69 9 24 79 24 126 0 15 -8 32 -14 37 -14 14
0 43 58 36 70 -26 42 -158 61 -221 31z"/>
<path d="M620 2500 l0 -210 45 0 44 0 3 83 3 82 93 3 92 3 0 -86 0 -85 50 0
50 0 0 210 0 210 -50 0 -50 0 0 -85 0 -85 -95 0 -95 0 0 85 0 85 -45 0 -45 0
0 -210z"/>
<path d="M1235 2673 c-10 -21 -35 -78 -55 -128 -21 -49 -54 -127 -74 -172
l-35 -83 49 0 c48 0 51 2 67 35 l17 35 92 0 93 0 12 -35 c13 -34 15 -35 65
-35 l53 0 -29 63 c-15 34 -56 128 -90 210 l-63 147 -42 0 c-38 0 -43 -3 -60
-37z m83 -145 c11 -29 23 -61 27 -70 6 -16 0 -18 -49 -18 -41 0 -56 4 -56 14
0 14 49 126 55 126 2 0 12 -24 23 -52z"/>
<path d="M1590 2500 l0 -210 45 0 45 0 0 65 0 65 38 0 c35 0 39 -4 76 -65 l38
-65 54 0 54 0 -45 73 -44 72 25 19 c78 58 71 182 -12 237 -24 16 -48 19 -151
19 l-123 0 0 -210z m214 119 c29 -13 40 -47 27 -82 -12 -30 -29 -37 -97 -37
l-54 0 0 65 0 65 50 0 c27 0 60 -5 74 -11z"/>
<path d="M1999 2663 c11 -27 49 -120 84 -208 l65 -160 44 -3 44 -3 82 203 c45
112 82 206 82 211 0 4 -22 7 -50 7 -30 0 -50 -4 -50 -11 0 -9 -46 -132 -98
-261 -5 -12 -24 29 -62 127 l-55 145 -52 0 -53 0 19 -47z"/>
<path d="M2480 2500 l0 -210 160 0 160 0 0 40 0 40 -115 0 -115 0 0 45 0 45
100 0 100 0 0 40 0 40 -100 0 -100 0 0 45 0 45 113 0 113 0 -4 40 -4 40 -154
0 -154 0 0 -210z"/>
<path d="M3240 2670 l0 -40 65 0 65 0 0 -170 0 -170 50 0 50 0 0 170 0 170 65
0 65 0 0 40 0 40 -180 0 -180 0 0 -40z"/>
<path d="M800 2133 c0 -6 8 -35 19 -65 10 -29 26 -79 36 -111 22 -78 122 -276
190 -377 181 -269 460 -516 712 -631 26 -12 77 -35 113 -51 89 -41 102 -46
205 -73 289 -77 590 -85 870 -24 187 41 426 141 598 250 242 153 501 442 639
714 41 81 88 196 88 217 0 7 -18 9 -57 4 -32 -3 -118 -6 -190 -7 -73 0 -133
-5 -133 -10 0 -5 3 -8 8 -8 37 6 222 -3 222 -11 0 -6 -35 -10 -86 -10 -54 0
-83 -4 -79 -10 8 -13 -28 -13 -41 0 -6 6 -15 5 -24 -1 -13 -9 -13 -10 2 -6 18
6 33 -19 18 -28 -6 -4 -7 -17 -4 -31 4 -15 2 -24 -6 -24 -7 0 -10 7 -6 15 3 8
1 15 -3 15 -5 0 -11 -5 -13 -12 -3 -7 -12 -9 -24 -4 -18 7 -18 8 -1 17 21 12
23 31 2 23 -16 -6 -31 -40 -34 -79 -1 -17 -47 -21 -53 -4 -2 5 -10 11 -18 12
-8 2 -20 6 -27 10 -6 4 -19 4 -29 0 -10 -4 -15 -2 -11 3 4 7 -6 8 -26 5 -22
-3 -26 -6 -12 -9 11 -2 27 -6 35 -9 8 -3 28 -7 43 -8 28 -3 51 -15 29 -15 -7
0 -12 -5 -12 -11 0 -6 7 -9 15 -5 18 7 45 -2 45 -16 0 -5 -15 -6 -34 -3 -22 5
-36 3 -41 -5 -5 -9 -1 -10 14 -5 13 4 27 1 37 -9 8 -9 12 -16 7 -16 -5 0 -14
5 -21 12 -9 9 -12 8 -12 -7 0 -17 -1 -17 -20 0 -20 18 -26 40 -12 48 4 2 1 2
-5 1 -7 -2 -13 0 -13 5 0 11 -49 1 -57 -12 -4 -6 3 -8 20 -3 30 7 42 -12 18
-32 -14 -12 -13 -13 7 -9 12 3 22 1 22 -4 0 -15 -89 -10 -115 7 -15 10 -34 14
-49 10 -24 -6 -52 14 -38 28 4 4 -8 0 -25 -11 -35 -19 -45 -59 -18 -69 8 -4
15 -12 15 -20 0 -10 15 -14 55 -14 30 0 55 3 55 8 0 4 27 8 59 8 48 1 58 -1
54 -13 -4 -11 -18 -13 -57 -9 -38 4 -45 3 -26 -4 18 -7 5 -9 -50 -6 -41 2 -81
5 -89 7 -7 2 -15 0 -17 -6 -2 -6 26 -11 68 -13 40 -2 75 -5 77 -8 8 -7 -20
-23 -33 -19 -29 9 -139 14 -121 5 11 -5 41 -9 68 -9 40 -1 47 -4 47 -21 0 -15
-7 -20 -29 -20 -17 0 -33 5 -36 10 -3 6 -21 9 -38 9 -30 -2 -31 -2 -4 -6 15
-2 27 -9 27 -14 0 -12 -127 -12 -135 1 -3 6 0 10 7 11 17 1 -22 17 -44 18 -11
1 -15 -4 -12 -14 4 -10 0 -15 -15 -15 -12 0 -21 6 -21 16 0 8 5 12 10 9 6 -3
10 -1 10 5 0 6 10 15 23 20 20 8 19 9 -10 9 -58 2 -87 25 -40 34 19 4 18 4 -5
6 -22 1 -28 6 -29 24 -1 12 -2 29 -3 37 -2 8 -3 27 -4 43 -1 19 -7 27 -19 26
-11 0 -13 -3 -5 -6 7 -2 12 -22 12 -45 0 -35 -2 -39 -15 -28 -8 7 -15 19 -15
26 0 8 -5 14 -12 14 -6 0 -8 -3 -5 -7 4 -3 2 -12 -5 -20 -9 -11 -7 -15 10 -20
28 -7 28 -23 2 -30 -11 -3 -20 -9 -20 -14 0 -5 -26 -10 -57 -11 -49 -1 -51 -2
-16 -5 26 -3 44 -10 47 -20 6 -14 -3 -15 -71 -11 -43 3 -65 3 -50 1 27 -4 28
-5 10 -18 -17 -13 -16 -14 10 -20 42 -11 32 -25 -20 -26 l-48 -2 39 -6 c58 -9
57 -37 -1 -45 -65 -9 -115 -7 -109 3 3 5 -1 11 -8 14 -8 3 -17 1 -19 -6 -3 -8
-10 -5 -20 8 -15 19 -16 19 -31 -17 -9 -21 -16 -43 -16 -51 0 -7 -7 -22 -15
-33 -18 -24 -19 -34 -1 -34 8 0 18 -5 22 -12 5 -7 0 -9 -14 -6 -25 7 -35 -4
-51 -54 -7 -20 -17 -39 -24 -42 -7 -2 0 -5 16 -5 30 -1 33 -6 15 -25 -9 -10
-23 -11 -53 -4 -55 12 -66 26 -28 34 29 6 31 8 21 30 -13 27 -28 32 -28 9 0
-8 -6 -15 -14 -15 -8 0 -24 -8 -36 -18 -17 -14 -21 -26 -18 -61 l3 -43 28 26
c24 22 31 24 55 14 15 -6 41 -10 57 -9 17 1 49 -4 72 -11 l42 -12 -49 -27
c-26 -14 -57 -26 -67 -25 -40 5 -74 19 -70 31 4 8 -3 10 -19 7 -27 -5 -33 -32
-6 -32 14 0 15 -2 2 -10 -12 -8 -9 -10 12 -10 15 0 30 -4 33 -10 3 -5 -1 -10
-9 -10 -9 0 -16 -5 -16 -11 0 -5 3 -9 8 -7 4 2 19 10 34 17 22 11 30 12 43 1
26 -21 17 -30 -32 -31 -39 -1 -43 -2 -23 -9 14 -4 19 -8 13 -9 -15 -1 -18 -37
-4 -45 5 -3 1 -27 -9 -53 -30 -81 -108 -115 -179 -79 -62 33 -82 114 -43 179
l20 35 -21 6 c-12 3 -26 0 -32 -6 -7 -8 -5 -9 8 -5 9 4 17 2 17 -3 0 -13 -14
-20 -27 -12 -14 9 -28 62 -17 63 5 1 21 2 35 3 14 1 38 9 52 19 14 9 31 17 37
17 5 0 10 6 10 13 0 8 -21 12 -68 13 -37 1 -56 -1 -43 -5 39 -10 38 -31 -1
-31 -27 0 -39 7 -57 31 -19 25 -21 33 -10 40 8 5 22 7 32 5 9 -2 15 -1 12 4
-7 12 77 18 105 7 24 -9 24 -10 5 -17 -19 -8 -19 -9 3 -9 18 -1 22 4 22 29 0
24 -4 30 -22 30 -12 0 -18 3 -15 7 4 4 -7 13 -24 20 -28 12 -31 16 -25 45 8
41 9 41 51 40 23 -1 35 3 35 12 0 9 -13 13 -45 11 -25 -1 -48 2 -51 7 -3 4
-14 8 -24 8 -24 0 -31 11 -23 38 6 23 54 42 107 42 26 0 28 -2 22 -27 -4 -16
-15 -34 -24 -41 -15 -12 -14 -13 8 -10 22 3 25 8 28 50 l3 46 -82 -1 c-68 0
-84 3 -95 18 -7 10 -11 21 -9 25 3 4 -11 11 -31 15 -34 6 -35 7 -19 25 9 10
34 21 54 23 34 3 33 4 -9 6 -48 2 -91 24 -68 35 7 3 1 4 -14 2 -25 -3 -28 0
-29 28 -1 21 -3 24 -6 10 -3 -17 -15 -23 -71 -32 l-67 -10 68 5 c58 5 66 3 61
-10 -4 -11 -25 -18 -62 -22 -88 -10 -94 -14 -16 -12 l71 2 -7 -25 c-6 -22 -11
-25 -51 -22 -51 3 -67 6 -92 17 -15 6 -16 10 -5 16 8 6 -1 9 -27 9 l-39 0 23
-17 c23 -16 23 -17 5 -24 -10 -4 -46 -9 -79 -10 -52 -2 -55 -3 -17 -6 25 -3
45 -10 49 -19 4 -10 22 -14 63 -14 42 0 64 -5 81 -19 13 -11 21 -22 18 -25 -3
-3 -32 -9 -66 -14 -60 -8 -163 10 -163 29 0 5 15 13 33 18 l32 9 -41 1 c-28 1
-47 8 -60 22 -14 16 -27 20 -54 16 -64 -10 -95 -19 -107 -34 -8 -10 -19 -12
-34 -8 l-23 8 27 13 c27 15 28 39 2 42 -36 4 -61 4 -74 1 -7 -2 -16 2 -19 10
-2 8 0 11 6 7 6 -3 14 -1 17 5 5 7 24 9 54 5 43 -6 45 -5 27 9 -17 13 -17 15
-4 15 9 0 19 4 22 9 3 5 -21 8 -54 7 -33 0 -60 -4 -60 -8 0 -5 10 -8 23 -9
l22 0 -23 -10 c-26 -10 -72 -2 -72 12 0 5 9 9 20 9 11 0 19 6 17 13 -1 6 4 11
11 9 8 -1 11 2 8 7 -4 5 2 15 11 21 17 11 17 11 1 6 -10 -3 -18 -1 -18 4 0 6
21 10 46 10 25 0 43 4 40 9 -3 5 -25 6 -49 4 -43 -5 -43 -5 -57 36 -7 23 -17
44 -22 47 -11 7 -10 -24 2 -47 8 -15 7 -19 -3 -19 -10 0 -17 18 -21 61 -4 33
-11 70 -17 82 -7 16 -8 9 -3 -27 4 -35 2 -51 -8 -57 -10 -7 -10 -9 0 -9 6 0
12 -7 12 -15 0 -12 -4 -14 -17 -7 -17 10 -26 52 -11 52 4 0 8 7 8 15 0 23 -16
18 -28 -10 -6 -14 -16 -25 -22 -25 -14 0 -13 17 3 23 6 3 1 6 -13 7 -23 1 -24
2 -7 14 15 12 12 14 -30 19 -27 3 -52 1 -57 -4 -6 -5 -19 -9 -30 -9 -20 1 -20
1 -2 11 15 9 16 13 5 20 -12 8 -12 11 1 19 12 8 10 10 -10 10 -37 2 -178 57
-160 63 8 3 24 8 35 10 11 3 -44 5 -121 6 -187 1 -202 5 -221 50 -37 84 -43
95 -43 84z m3135 -252 c3 -5 1 -12 -5 -16 -5 -3 -10 1 -10 9 0 18 6 21 15 7z
m-2540 -49 c-7 -8 -45 10 -40 19 4 5 14 3 25 -3 11 -7 17 -14 15 -16z m-55 -6
c0 -3 -4 -8 -10 -11 -5 -3 -10 -1 -10 4 0 6 5 11 10 11 6 0 10 -2 10 -4z
m2540 0 c0 -2 -7 -7 -16 -10 -8 -3 -12 -2 -9 4 6 10 25 14 25 6z m-2450 -16
c0 -5 -6 -10 -14 -10 -8 0 -21 -3 -30 -6 -9 -3 -16 -1 -16 4 0 10 19 18 48 21
6 0 12 -3 12 -9z m25 -29 c-8 -13 -35 -15 -35 -2 0 5 8 11 18 13 21 5 26 2 17
-11z m2400 -8 c-24 -17 -32 -16 -38 1 -4 11 2 14 25 14 28 -1 29 -2 13 -15z
m-2460 -14 c-7 -11 -35 -12 -35 -1 0 4 9 8 20 9 11 1 18 -2 15 -8z m-58 -5
c-3 -3 -12 -4 -19 -1 -8 3 -5 6 6 6 11 1 17 -2 13 -5z m113 2 c0 -2 -7 -6 -15
-10 -8 -3 -15 -1 -15 4 0 6 7 10 15 10 8 0 15 -2 15 -4z m70 -5 c0 -5 -7 -12
-16 -15 -8 -3 -12 -10 -9 -16 3 -5 1 -10 -5 -10 -7 0 -9 7 -6 16 3 9 6 20 6
25 0 5 7 9 15 9 8 0 15 -4 15 -9z m2065 -21 c17 -7 15 -9 -12 -9 -18 -1 -33 4
-33 9 0 12 17 12 45 0z m-2242 -7 c-7 -2 -19 -2 -25 0 -7 3 -2 5 12 5 14 0 19
-2 13 -5z m2540 0 c-7 -2 -21 -2 -30 0 -10 3 -4 5 12 5 17 0 24 -2 18 -5z
m-33 -19 c0 -2 -19 -4 -42 -3 -31 0 -37 3 -24 8 18 7 66 3 66 -5z m-2395 -4
c-11 -5 -27 -9 -35 -9 -9 0 -8 4 5 9 11 5 27 9 35 9 9 0 8 -4 -5 -9z m2100 0
c3 -5 -1 -10 -10 -10 -9 0 -13 5 -10 10 3 6 8 10 10 10 2 0 7 -4 10 -10z m149
-1 c-3 -5 -35 -9 -72 -8 -47 0 -61 3 -47 9 26 11 126 10 119 -1z m96 -19 c0
-5 -4 -10 -9 -10 -6 0 -13 5 -16 10 -3 6 1 10 9 10 9 0 16 -4 16 -10z m-2326
-20 c-10 -4 -48 -10 -84 -13 l-65 -6 43 13 c23 8 51 12 62 9 11 -3 20 -1 20 5
0 6 10 8 22 4 20 -5 20 -6 2 -12z m2084 13 c-10 -2 -26 -2 -35 0 -10 3 -2 5
17 5 19 0 27 -2 18 -5z m-392 -48 c-6 -17 -26 -20 -26 -5 0 16 24 40 28 29 2
-5 1 -16 -2 -24z m67 5 c3 -11 1 -20 -4 -20 -5 0 -9 9 -9 20 0 11 2 20 4 20 2
0 6 -9 9 -20z m-1783 -5 c-7 -8 -20 -15 -29 -15 -13 1 -13 3 3 15 26 19 42 19
26 0z m818 9 c27 -8 28 -21 2 -29 -11 -4 -18 -11 -15 -16 4 -5 1 -9 -4 -9 -6
0 -11 5 -11 11 0 5 -6 7 -12 3 -10 -5 -10 -4 -1 6 6 7 9 19 6 26 -6 15 1 17
35 8z m1769 0 c-3 -3 -12 -4 -19 -1 -8 3 -5 6 6 6 11 1 17 -2 13 -5z m-2637
-15 c0 -5 -17 -9 -37 -9 -25 0 -33 3 -24 9 17 11 61 11 61 0z m2300 1 c0 -5
-9 -10 -19 -10 -11 0 -23 5 -26 10 -4 6 5 10 19 10 14 0 26 -4 26 -10z m47 4
c-3 -3 -12 -4 -19 -1 -8 3 -5 6 6 6 11 1 17 -2 13 -5z m-2182 -24 c3 -5 1 -10
-4 -10 -6 0 -11 5 -11 10 0 6 2 10 4 10 3 0 8 -4 11 -10z m1631 -38 c-11 -10
-15 4 -8 28 l7 25 3 -23 c2 -13 1 -26 -2 -30z m721 42 c-3 -3 -12 -4 -19 -1
-8 3 -5 6 6 6 11 1 17 -2 13 -5z m-764 -24 c4 -16 0 -20 -23 -20 -36 0 -98 25
-79 33 8 3 33 6 55 6 34 1 43 -3 47 -19z m87 0 c0 -11 -4 -20 -10 -20 -5 0
-10 9 -10 20 0 11 5 20 10 20 6 0 10 -9 10 -20z m440 8 c0 -10 -19 -9 -45 2
-16 7 -14 9 13 7 17 -1 32 -5 32 -9z m-2225 -16 c-3 -3 -11 0 -18 7 -9 10 -8
11 6 5 10 -3 15 -9 12 -12z m2341 9 c-3 -5 -15 -7 -26 -4 -28 7 -25 13 6 13
14 0 23 -4 20 -9z m-2511 -11 c-3 -5 -12 -10 -18 -10 -7 0 -6 4 3 10 19 12 23
12 15 0z m366 -11 c-19 -15 -26 -17 -32 -7 -6 9 -1 15 14 20 38 11 43 8 18
-13z m498 5 c2 -2 -8 -8 -23 -14 -34 -12 -96 -13 -116 0 -12 7 -10 11 10 18
22 9 118 5 129 -4z m-619 -3 c0 -6 -4 -13 -10 -16 -5 -3 -10 1 -10 9 0 9 5 16
10 16 6 0 10 -4 10 -9z m27 -13 c-3 -8 -6 -5 -6 6 -1 11 2 17 5 13 3 -3 4 -12
1 -19z m767 6 c3 -9 4 -19 1 -24 -3 -4 19 -12 47 -16 45 -6 49 -8 28 -15 -14
-4 -42 -7 -62 -8 -36 -1 -41 4 -37 35 2 17 -27 22 -43 7 -17 -15 -18 -14 -18
10 0 25 3 27 39 27 26 0 41 -5 45 -16z m1326 6 c0 -5 -7 -10 -15 -10 -8 0 -15
5 -15 10 0 6 7 10 15 10 8 0 15 -4 15 -10z m40 -11 c0 -5 -4 -9 -8 -9 -5 0 -9
7 -9 15 0 8 4 12 9 9 4 -3 8 -9 8 -15z m-2220 -3 c0 -8 6 -16 13 -19 6 -2 -13
-4 -43 -4 -30 0 -46 2 -35 4 11 3 24 11 28 19 10 18 37 18 37 0z m730 -6 c0
-16 -7 -20 -30 -20 -36 0 -39 13 -7 28 32 15 37 14 37 -8z m-845 0 c-11 -5
-27 -9 -35 -9 -9 0 -8 4 5 9 11 5 27 9 35 9 9 0 8 -4 -5 -9z m1820 1 c3 -5 1
-12 -5 -16 -5 -3 -10 -15 -10 -27 0 -18 -4 -20 -32 -14 -32 6 -71 43 -62 58 7
11 102 10 109 -1z m429 3 c36 -14 14 -26 -36 -19 -39 4 -49 3 -38 -4 13 -10
13 -12 0 -21 -17 -11 -35 -6 -95 22 l-40 18 60 -4 c33 -2 71 0 85 4 33 11 45
11 64 4z m160 -3 c4 -5 -3 -7 -14 -4 -23 6 -26 13 -6 13 8 0 17 -4 20 -9z
m-387 -18 c15 -10 40 -22 57 -28 16 -5 31 -16 34 -22 5 -18 -126 -10 -164 10
-16 9 -23 16 -16 17 19 0 14 20 -5 20 -15 0 -16 2 -3 10 23 15 68 12 97 -7z
m-1492 -11 c-3 -3 -11 0 -18 7 -9 10 -8 11 6 5 10 -3 15 -9 12 -12z m1370 -12
c-5 -15 -1 -22 17 -29 21 -9 21 -10 -9 -10 -28 -1 -33 2 -33 23 0 20 8 30 28
35 2 1 0 -8 -3 -19z m568 13 c-7 -2 -21 -2 -30 0 -10 3 -4 5 12 5 17 0 24 -2
18 -5z m-2173 -13 c0 -5 -15 -10 -32 -10 -25 0 -29 3 -18 10 20 13 50 13 50 0z
m70 -5 c0 -8 -9 -15 -20 -15 -13 0 -18 5 -14 15 4 8 12 15 20 15 8 0 14 -7 14
-15z m1906 -19 c8 -8 14 -17 14 -20 0 -10 -43 -5 -85 9 l-40 14 47 -2 c25 -1
44 1 41 6 -7 12 8 8 23 -7z m-1958 -5 c9 -5 25 -12 35 -15 29 -9 11 -24 -47
-37 -50 -11 -56 -10 -77 10 -12 11 -21 22 -18 23 35 22 47 27 67 27 12 1 30
-3 40 -8z m266 -8 l28 -6 -32 -13 c-47 -20 -60 -18 -60 12 0 21 4 25 18 19 9
-3 30 -9 46 -12z m430 2 c-5 -13 -9 -13 -22 -3 -12 10 -16 10 -19 1 -6 -17
-23 -17 -23 0 0 8 14 14 35 15 28 2 33 0 29 -13z m546 5 c0 -5 -4 -10 -9 -10
-6 0 -13 5 -16 10 -3 6 1 10 9 10 9 0 16 -4 16 -10z m165 -25 c0 -19 -3 -35
-7 -35 -5 0 -8 4 -8 9 0 5 -20 6 -44 4 -49 -6 -96 2 -96 16 0 16 65 41 110 41
45 0 45 0 45 -35z m-880 15 c4 -6 11 -8 16 -5 5 4 9 -5 9 -19 0 -27 -15 -35
-23 -13 -4 9 -7 9 -14 0 -13 -19 -133 -3 -133 17 0 19 134 38 145 20z m88 -12
c6 -22 -6 -38 -30 -38 -15 0 -15 5 -7 38 8 28 30 29 37 0z m861 -5 c-9 -36 -9
-36 -32 -29 -13 5 -19 15 -18 31 1 20 6 25 29 25 25 0 27 -3 21 -27z m-1724 7
c-14 -4 -32 -8 -40 -9 -13 -1 -13 0 0 9 8 5 26 9 40 9 l25 -1 -25 -8z m2363 3
c3 -5 -6 -9 -19 -9 -13 -1 -24 2 -24 7 0 11 37 12 43 2z m-2306 -29 c1 -18 -2
-23 -9 -16 -6 6 -8 18 -5 26 9 22 12 20 14 -10z m548 4 c6 -13 26 -26 50 -33
l40 -11 -61 -22 c-51 -19 -72 -22 -123 -16 -33 3 -61 11 -61 15 0 5 4 9 10 9
11 0 62 50 52 51 -9 1 59 27 73 28 6 1 15 -9 20 -21z m1159 7 c3 -8 1 -15 -4
-15 -6 0 -10 7 -10 15 0 8 2 15 4 15 2 0 6 -7 10 -15z m302 -24 c1 -18 8 -37
15 -42 7 -4 -13 -6 -45 -3 -58 5 -93 20 -93 39 0 6 -10 15 -22 21 -42 22 -34
25 54 22 l89 -3 2 -34z m92 25 c6 -7 -8 -26 -19 -26 -6 0 -7 5 -4 10 3 6 -3
10 -14 10 -11 0 -23 5 -27 12 -5 8 2 9 26 4 19 -3 35 -8 38 -10z m-338 -6 c0
-5 -4 -10 -10 -10 -5 0 -10 5 -10 10 0 6 5 10 10 10 6 0 10 -4 10 -10z m50
-15 c0 -8 10 -20 23 -26 22 -12 22 -13 -8 -21 -18 -4 -31 -4 -33 2 -2 6 -8 8
-13 4 -5 -3 -9 9 -9 25 0 24 4 31 20 31 11 0 20 -7 20 -15z m324 -20 c-22 -17
-58 -20 -49 -4 4 6 9 8 12 5 3 -3 15 1 26 9 27 19 37 10 11 -10z m-2206 8
c-10 -2 -26 -2 -35 0 -10 3 -2 5 17 5 19 0 27 -2 18 -5z m482 3 c0 -3 -4 -8
-10 -11 -5 -3 -10 -1 -10 4 0 6 5 11 10 11 6 0 10 -2 10 -4z m1258 -17 c2 -5
10 -9 17 -9 19 0 26 -27 8 -34 -40 -16 -172 22 -181 52 -3 10 12 12 74 6 44
-4 81 -11 82 -15z m-1434 5 c23 -9 10 -23 -16 -16 -14 3 -19 2 -14 -6 4 -7 14
-12 22 -12 8 0 14 -7 14 -15 0 -16 -1 -16 -39 -20 -23 -2 -24 -2 -6 11 10 8
14 14 8 14 -7 0 -19 7 -28 16 -13 14 -14 19 -3 25 15 10 40 11 62 3z m696 -4
c0 -5 -8 -14 -17 -19 -10 -6 -12 -11 -5 -11 27 0 10 -18 -24 -24 -19 -4 -42
-10 -50 -13 -8 -3 -14 0 -14 5 0 6 9 14 21 17 13 4 18 12 15 22 -3 8 -4 19 0
24 7 12 74 12 74 -1z m558 -19 l33 -29 -29 -21 c-17 -11 -41 -21 -54 -21 -22
1 -22 1 -4 15 17 13 18 15 3 15 -9 0 -17 4 -17 10 0 5 -13 7 -30 4 -20 -4 -30
-2 -30 5 0 8 8 10 20 6 11 -4 20 -2 20 4 0 6 -7 11 -16 11 -14 0 -14 3 -4 15
20 24 71 17 108 -14z m-705 -7 c-7 -20 -19 -17 -19 5 0 11 6 17 13 14 6 -3 9
-11 6 -19z m1287 15 c0 -8 12 -10 35 -6 19 3 35 2 35 -4 0 -15 -76 -10 -90 6
-10 12 -10 15 4 15 9 0 16 -5 16 -11z m-1332 -16 c-5 -25 -28 -28 -28 -4 0 12
6 21 16 21 9 0 14 -7 12 -17z m1522 2 c0 -8 -4 -15 -10 -15 -5 0 -7 7 -4 15 4
8 8 15 10 15 2 0 4 -7 4 -15z m-1600 -35 c0 -17 -9 -39 -20 -50 -19 -19 -24
-20 -58 -8 -63 22 -88 37 -71 42 8 3 39 14 69 25 75 26 80 26 80 -9z m1227 -5
l28 -24 -55 4 c-30 3 -68 8 -85 12 l-30 6 40 12 c59 19 71 18 102 -10z m91 13
c-2 -8 10 -14 32 -15 l35 -1 -30 8 -30 8 38 1 c20 0 37 -3 37 -8 0 -5 12 -12
28 -14 21 -3 19 -5 -13 -6 -36 -3 -37 -4 -15 -11 14 -4 18 -8 10 -9 -21 -1
-103 25 -137 43 l-28 15 38 1 c24 0 36 -4 35 -12z m-1198 -12 c0 -8 -4 -18
-10 -21 -5 -3 -10 3 -10 14 0 12 5 21 10 21 6 0 10 -6 10 -14z m-335 -5 c4 -7
-46 -41 -60 -41 -1 0 0 11 3 25 3 18 11 25 28 25 12 0 25 -4 29 -9z m467 -9
c7 -10 22 -22 33 -27 30 -13 -87 -30 -126 -19 -45 13 -40 27 16 46 63 22 61
22 77 0z m762 -3 c8 -9 6 -10 -12 -6 -12 3 -20 1 -17 -3 3 -5 -10 -10 -29 -12
l-35 -3 16 -33 c14 -28 20 -32 40 -27 15 3 22 2 19 -4 -4 -5 1 -14 10 -19 12
-7 8 -9 -17 -8 -39 1 -99 48 -99 77 0 9 -6 19 -12 22 -8 2 0 11 17 20 33 19
100 17 119 -4z m458 -7 c3 -11 0 -19 -8 -19 -16 0 -16 0 -8 21 8 21 11 20 16
-2z m-1927 -12 l-40 -7 38 -2 c30 -1 37 -5 37 -21 0 -15 -7 -20 -25 -20 -15 0
-25 6 -25 15 0 8 -12 18 -26 21 -37 9 -10 24 41 22 l40 -1 -40 -7z m263 -28
c-36 -3 -46 -11 -32 -24 3 -4 22 0 41 9 23 9 38 11 42 4 4 -5 13 -9 21 -9 8 1
31 0 50 0 45 -3 31 -15 -47 -41 -53 -18 -69 -19 -113 -10 -57 12 -67 23 -16
17 19 -2 32 0 30 4 -3 4 -16 8 -30 8 -36 0 -29 25 14 48 29 15 41 17 57 8 18
-10 16 -11 -17 -14z m1016 22 c9 -3 16 -14 16 -25 0 -10 12 -30 27 -44 l28
-25 -68 0 c-37 0 -100 7 -138 16 -58 13 -68 18 -58 30 6 7 15 11 20 8 5 -3 9
-1 9 5 0 5 -6 12 -12 14 -7 3 12 6 42 7 44 2 107 12 117 19 1 0 8 -2 17 -5z
m516 -4 c24 -15 7 -18 -20 -3 -14 7 -18 13 -10 13 8 0 22 -4 30 -10z m-1325
-10 c3 -5 1 -10 -4 -10 -6 0 -11 5 -11 10 0 6 2 10 4 10 3 0 8 -4 11 -10z
m114 -4 c10 -12 8 -13 -8 -9 -12 3 -21 9 -21 14 0 14 16 11 29 -5z m1133 0
c13 -10 15 -15 6 -24 -7 -7 -18 -12 -26 -12 -12 0 -12 -3 -2 -15 10 -12 10
-15 -4 -15 -9 0 -16 5 -16 10 0 6 -7 10 -15 10 -23 0 -7 -28 23 -40 24 -9 23
-10 -13 -5 -22 3 -74 5 -115 6 -51 0 -69 3 -55 9 11 5 16 9 10 9 -10 1 16 16
66 38 22 9 27 8 37 -8 11 -18 10 -19 -12 -13 -15 3 -33 0 -45 -8 -19 -14 -17
-15 25 -15 42 0 46 3 51 28 3 17 14 31 27 35 21 7 21 7 1 15 -17 6 -15 8 10 8
17 0 38 -5 47 -13z m50 -43 c20 -23 7 -64 -19 -62 -17 1 -17 2 0 6 25 6 21 23
-5 24 -18 1 -17 3 7 9 l30 7 -27 7 c-16 5 -25 12 -22 17 8 14 19 11 36 -8z
m-1312 -23 c0 -5 -12 -10 -26 -10 -14 0 -23 4 -19 10 3 6 15 10 26 10 10 0 19
-4 19 -10z m-430 -25 c0 -9 -9 -15 -22 -15 -22 1 -23 1 -4 15 25 19 26 19 26
0z m470 -12 c0 -20 -3 -24 -11 -16 -7 7 -9 19 -6 27 10 24 17 19 17 -11z
m-102 3 c-20 -6 -40 -15 -45 -20 -5 -5 -3 -6 5 -2 19 11 35 -3 22 -19 -6 -8
-7 -16 -2 -19 11 -6 52 0 61 10 3 4 -10 4 -29 0 -25 -4 -31 -3 -20 4 22 14 56
12 70 -5 9 -10 9 -15 1 -15 -6 0 -11 -4 -11 -9 0 -5 9 -7 20 -4 14 4 20 0 20
-11 0 -12 -10 -16 -45 -16 -25 0 -45 4 -45 9 0 6 -12 16 -26 23 -15 7 -26 17
-25 22 2 5 -3 12 -10 16 -19 13 -3 38 28 43 53 8 68 5 31 -7z m49 -23 c-3 -2
-16 -3 -29 0 l-23 4 23 8 c12 4 23 12 23 19 1 6 3 3 6 -7 3 -10 3 -21 0 -24z
m146 26 c-7 -7 -9 -25 -6 -40 3 -16 1 -29 -4 -29 -5 0 -10 18 -11 40 -2 32 2
40 15 40 13 0 14 -3 6 -11z m-328 -19 c-7 -12 -85 -14 -85 -2 0 5 21 10 46 10
28 2 43 -2 39 -8z m980 0 c-16 -7 -14 -9 15 -9 26 -1 31 2 20 9 -10 7 5 9 50
8 48 -1 54 -2 23 -5 -29 -3 -47 -11 -57 -25 -11 -15 -20 -18 -33 -13 -10 5
-31 10 -48 12 -29 3 -29 2 8 -14 39 -19 48 -37 21 -47 -8 -3 -12 -10 -9 -16 3
-5 -19 2 -49 17 -31 16 -56 33 -56 38 1 14 80 52 110 53 23 1 23 0 5 -8z
m-711 -22 c-4 -13 -7 -29 -7 -35 0 -19 -14 -16 -22 4 -3 10 -1 19 4 21 6 2 11
10 11 18 0 8 5 14 11 14 6 0 8 -9 3 -22z m984 7 c11 -11 -21 -32 -39 -28 -12
3 -24 1 -28 -4 -3 -6 -26 -14 -51 -17 -33 -5 -41 -4 -30 3 8 6 25 11 38 11 12
0 22 5 22 10 0 6 7 10 15 10 8 0 15 5 15 10 0 14 -26 12 -38 -3 -14 -16 -88
-22 -97 -7 -3 5 2 9 12 8 44 -3 74 2 67 14 -5 8 8 9 51 4 33 -4 61 -9 63 -11z
m102 -2 c-8 -3 -18 -11 -22 -17 -5 -7 -8 -4 -8 7 0 11 7 17 23 16 15 0 17 -2
7 -6z m-1600 -13 c0 -5 -8 -10 -17 -10 -15 0 -16 2 -3 10 19 12 20 12 20 0z
m222 -7 c-12 -2 -20 -9 -17 -14 4 -5 -3 -9 -14 -9 -12 0 -21 4 -21 9 0 11 25
19 55 18 16 0 16 -1 -3 -4z m1078 -22 c0 -5 -9 -11 -20 -14 -20 -5 -26 3 -13
16 9 10 33 8 33 -2z m180 -10 c0 -12 -34 -27 -66 -30 -9 0 -12 -6 -8 -13 5 -7
2 -9 -8 -5 -9 3 -35 -1 -58 -9 -47 -16 -90 -11 -57 7 9 6 27 7 38 4 14 -5 19
-3 15 3 -4 6 2 8 16 4 14 -3 19 -2 14 6 -5 8 1 11 16 9 15 -1 22 3 20 12 -2 9
4 12 16 9 11 -3 26 -2 33 3 18 11 29 11 29 0z m-886 -40 c-9 -10 -26 18 -18
30 5 9 9 8 14 -7 4 -10 6 -21 4 -23z m-327 13 c-3 -3 -12 -4 -19 -1 -8 3 -5 6
6 6 11 1 17 -2 13 -5z m34 -27 c-10 -9 -11 -8 -5 6 3 10 9 15 12 12 3 -3 0
-11 -7 -18z m256 1 c-3 -8 -6 -5 -6 6 -1 11 2 17 5 13 3 -3 4 -12 1 -19z m581
10 c7 -7 12 -16 12 -21 0 -5 -7 -1 -16 8 -9 9 -19 13 -22 10 -4 -3 0 -11 8
-16 12 -9 12 -10 -3 -5 -10 3 -28 1 -40 -5 -20 -10 -20 -9 3 14 28 29 41 32
58 15z m129 6 c-3 -3 -12 -4 -19 -1 -8 3 -5 6 6 6 11 1 17 -2 13 -5z m-794
-20 c-3 -9 -9 -12 -12 -7 -3 4 -10 11 -15 16 -5 4 0 7 12 7 15 0 20 -4 15 -16z
m767 -2 l-25 -5 25 -8 c23 -7 23 -7 -7 -8 -18 -1 -33 3 -33 8 0 12 19 20 45
19 14 -1 13 -2 -5 -6z m-924 -17 c-8 -8 -18 -15 -22 -15 -3 0 -1 7 6 15 7 8
17 15 22 15 5 0 3 -7 -6 -15z m729 -5 c-3 -5 -11 -10 -16 -10 -6 0 -7 5 -4 10
3 6 11 10 16 10 6 0 7 -4 4 -10z m309 -11 c-9 -15 -34 -10 -28 5 3 8 12 12 20
9 8 -3 11 -9 8 -14z m-49 1 c3 -5 2 -10 -4 -10 -5 0 -13 5 -16 10 -3 6 -2 10
4 10 5 0 13 -4 16 -10z m-165 -4 c0 -3 -4 -8 -10 -11 -5 -3 -10 -1 -10 4 0 6
5 11 10 11 6 0 10 -2 10 -4z m-70 -10 c0 -2 -13 -9 -30 -15 -16 -5 -30 -6 -30
-1 0 7 10 11 53 19 4 0 7 -1 7 -3z m10 -76 c0 -5 -2 -10 -4 -10 -3 0 -8 5 -11
10 -3 6 -1 10 4 10 6 0 11 -4 11 -10z"/>
<path d="M3328 1503 c12 -2 30 -2 40 0 9 3 -1 5 -23 4 -22 0 -30 -2 -17 -4z"/>
<path d="M1608 1463 c7 -3 16 -2 19 1 4 3 -2 6 -13 5 -11 0 -14 -3 -6 -6z"/>
<path d="M2165 1440 c-3 -6 1 -7 9 -4 18 7 21 14 7 14 -6 0 -13 -4 -16 -10z"/>
<path d="M1998 1403 c7 -3 16 -2 19 1 4 3 -2 6 -13 5 -11 0 -14 -3 -6 -6z"/>
<path d="M3450 1390 c-12 -8 -10 -10 8 -10 13 0 20 4 17 10 -7 12 -6 12 -25 0z"/>
<path d="M1688 1263 c7 -3 16 -2 19 1 4 3 -2 6 -13 5 -11 0 -14 -3 -6 -6z"/>
<path d="M3340 1240 c0 -5 5 -10 10 -10 6 0 10 5 10 10 0 6 -4 10 -10 10 -5 0
-10 -4 -10 -10z"/>
<path d="M2838 1103 c7 -3 16 -2 19 1 4 3 -2 6 -13 5 -11 0 -14 -3 -6 -6z"/>
<path d="M2890 1090 c0 -5 5 -10 10 -10 6 0 10 5 10 10 0 6 -4 10 -10 10 -5 0
-10 -4 -10 -10z"/>
<path d="M1788 2022 c-9 -9 -24 -23 -32 -30 -18 -14 -21 -59 -6 -82 14 -22
108 -17 126 7 16 21 18 53 4 53 -5 0 -10 5 -10 11 0 6 9 9 19 6 39 -10 30 21
-10 37 -49 20 -69 19 -91 -2z"/>
<path d="M3846 1968 c3 -5 10 -6 15 -3 13 9 11 12 -6 12 -8 0 -12 -4 -9 -9z"/>
<path d="M3815 1909 c-11 -16 -1 -19 13 -3 7 8 8 14 3 14 -5 0 -13 -5 -16 -11z"/>
<path d="M3753 1903 c19 -11 5 -25 -20 -18 -19 4 -25 3 -18 -4 16 -16 82 -24
90 -11 5 7 -2 9 -22 5 -27 -6 -27 -6 -9 9 11 9 15 16 9 16 -6 0 -17 2 -25 3
-7 2 -10 2 -5 0z"/>
<path d="M1891 1834 c-14 -13 -27 -21 -31 -19 -3 2 -16 -5 -30 -15 -19 -15
-22 -21 -12 -32 6 -8 9 -18 5 -21 -3 -4 0 -7 9 -7 17 0 58 41 58 58 0 6 14 18
30 27 17 9 30 20 30 26 0 8 -4 8 -14 0 -8 -7 -16 -8 -18 -3 -1 5 -14 -1 -27
-14z"/>
<path d="M3600 1835 c-10 -12 -10 -18 0 -30 7 -8 17 -15 22 -15 5 0 2 7 -7 16
-13 13 -14 19 -4 25 8 4 11 11 8 14 -4 3 -12 -1 -19 -10z"/>
<path d="M2821 1788 c-1 -44 -5 -58 -16 -58 -8 0 -17 -12 -21 -27 -3 -16 -7
-33 -9 -40 -2 -7 0 -15 5 -18 6 -4 10 -15 10 -26 0 -13 7 -19 24 -19 13 0 26
6 29 13 3 9 8 9 17 1 8 -8 9 -14 1 -18 -6 -4 -11 -16 -11 -27 0 -16 7 -19 38
-18 23 1 28 3 15 6 -32 6 -28 18 10 31 l32 11 -31 -5 c-24 -4 -31 -1 -31 12 0
13 7 15 34 11 l33 -6 -17 23 c-16 21 -19 22 -30 7 -10 -14 -13 -13 -22 12 -6
16 -11 33 -11 38 0 5 -4 9 -10 9 -5 0 -10 10 -11 23 -1 21 -1 21 -9 -3 -6 -19
-8 -12 -8 30 -1 47 1 52 10 33 6 -13 15 -23 20 -23 14 0 9 19 -11 39 -10 10
-21 25 -24 32 -3 8 -6 -12 -6 -43z"/>
<path d="M3066 1824 c-22 -21 -20 -40 6 -58 27 -19 58 -5 58 27 0 43 -35 60
-64 31z"/>
<path d="M3525 1820 c3 -5 8 -10 11 -10 2 0 4 5 4 10 0 6 -5 10 -11 10 -5 0
-7 -4 -4 -10z"/>
<path d="M1651 1811 c-7 -5 -9 -11 -5 -14 5 -3 15 1 22 9 14 16 5 18 -17 5z"/>
<path d="M3480 1810 c0 -5 5 -10 11 -10 5 0 7 5 4 10 -3 6 -8 10 -11 10 -2 0
-4 -4 -4 -10z"/>
<path d="M3640 1810 c0 -5 10 -10 23 -10 18 0 19 2 7 10 -19 13 -30 13 -30 0z"/>
<path d="M1600 1786 c0 -2 7 -6 15 -10 8 -3 15 -1 15 4 0 6 -7 10 -15 10 -8 0
-15 -2 -15 -4z"/>
<path d="M3598 1778 c5 -5 16 -8 23 -6 8 3 3 7 -10 11 -17 4 -21 3 -13 -5z"/>
<path d="M3328 1773 c7 -3 16 -2 19 1 4 3 -2 6 -13 5 -11 0 -14 -3 -6 -6z"/>
<path d="M3400 1770 c0 -5 5 -10 10 -10 6 0 10 5 10 10 0 6 -4 10 -10 10 -5 0
-10 -4 -10 -10z"/>
<path d="M2148 1763 c7 -3 16 -2 19 1 4 3 -2 6 -13 5 -11 0 -14 -3 -6 -6z"/>
<path d="M2698 1763 c7 -3 16 -2 19 1 4 3 -2 6 -13 5 -11 0 -14 -3 -6 -6z"/>
<path d="M1613 1753 c9 -2 23 -2 30 0 6 3 -1 5 -18 5 -16 0 -22 -2 -12 -5z"/>
<path d="M2418 1753 c7 -3 16 -2 19 1 4 3 -2 6 -13 5 -11 0 -14 -3 -6 -6z"/>
<path d="M3615 1750 c-7 -12 12 -12 40 0 18 8 17 9 -7 9 -15 1 -30 -3 -33 -9z"/>
<path d="M1930 1740 c-12 -8 -9 -10 12 -10 15 0 30 5 33 10 8 13 -25 13 -45 0z"/>
<path d="M2070 1740 c-13 -8 -13 -10 2 -10 9 0 20 5 23 10 8 13 -5 13 -25 0z"/>
<path d="M2478 1743 c6 -2 18 -2 25 0 6 3 1 5 -13 5 -14 0 -19 -2 -12 -5z"/>
<path d="M2626 1741 c-19 -7 -19 -8 2 -13 15 -4 22 -2 22 8 0 8 -1 14 -2 13
-2 0 -12 -4 -22 -8z"/>
<path d="M2888 1743 c7 -3 16 -2 19 1 4 3 -2 6 -13 5 -11 0 -14 -3 -6 -6z"/>
<path d="M3128 1743 c-10 -2 -18 -9 -18 -14 0 -14 16 -11 30 6 7 8 11 14 9 14
-2 -1 -12 -3 -21 -6z"/>
<path d="M2208 1733 c7 -3 16 -2 19 1 4 3 -2 6 -13 5 -11 0 -14 -3 -6 -6z"/>
<path d="M3025 1730 c4 -6 11 -8 16 -5 14 9 11 15 -7 15 -8 0 -12 -5 -9 -10z"/>
<path d="M3275 1730 c3 -5 8 -10 11 -10 2 0 4 5 4 10 0 6 -5 10 -11 10 -5 0
-7 -4 -4 -10z"/>
<path d="M3380 1730 c0 -5 5 -10 11 -10 5 0 7 5 4 10 -3 6 -8 10 -11 10 -2 0
-4 -4 -4 -10z"/>
<path d="M1983 1723 c-18 -7 -16 -23 2 -23 8 0 15 7 15 15 0 8 -1 15 -2 14 -2
0 -9 -3 -15 -6z"/>
<path d="M2015 1720 c-3 -6 1 -7 9 -4 18 7 21 14 7 14 -6 0 -13 -4 -16 -10z"/>
<path d="M2305 1720 c-13 -5 -14 -9 -5 -9 8 0 24 4 35 9 13 5 14 9 5 9 -8 0
-24 -4 -35 -9z"/>
<path d="M2440 1721 c0 -5 -8 -12 -17 -15 -11 -3 -8 -4 6 -3 24 2 44 27 22 27
-6 0 -11 -4 -11 -9z"/>
<path d="M2680 1720 c-8 -5 -11 -12 -7 -16 4 -4 15 0 24 9 18 18 8 23 -17 7z"/>
<path d="M1720 1710 c0 -5 5 -10 10 -10 6 0 10 5 10 10 0 6 -4 10 -10 10 -5 0
-10 -4 -10 -10z"/>
<path d="M2052 1708 c3 -7 18 -14 34 -15 20 -1 22 0 7 4 -13 2 -23 9 -23 14 0
5 -5 9 -11 9 -6 0 -9 -6 -7 -12z"/>
<path d="M2128 1713 c6 -2 18 -2 25 0 6 3 1 5 -13 5 -14 0 -19 -2 -12 -5z"/>
<path d="M3348 1713 c7 -3 16 -2 19 1 4 3 -2 6 -13 5 -11 0 -14 -3 -6 -6z"/>
<path d="M1660 1700 c-21 -7 -21 -8 -5 -9 11 0 27 4 35 9 18 11 5 11 -30 0z"/>
<path d="M3132 1699 c2 -7 10 -15 17 -17 8 -3 12 1 9 9 -2 7 -10 15 -17 17 -8
3 -12 -1 -9 -9z"/>
<path d="M3288 1703 c7 -3 16 -2 19 1 4 3 -2 6 -13 5 -11 0 -14 -3 -6 -6z"/>
<path d="M3408 1703 c6 -2 18 -2 25 0 6 3 1 5 -13 5 -14 0 -19 -2 -12 -5z"/>
<path d="M1915 1690 c3 -5 16 -10 28 -10 18 0 19 2 7 10 -20 13 -43 13 -35 0z"/>
<path d="M2270 1693 c8 -3 21 -10 28 -16 9 -7 11 -6 6 7 -3 9 -16 16 -28 15
-14 0 -16 -2 -6 -6z"/>
<path d="M2360 1696 c0 -2 9 -6 20 -9 11 -3 20 -1 20 4 0 5 -9 9 -20 9 -11 0
-20 -2 -20 -4z"/>
<path d="M2610 1691 c0 -15 38 -20 44 -5 4 10 -2 14 -19 14 -14 0 -25 -4 -25
-9z"/>
<path d="M2001 1674 c-8 -9 -23 -14 -37 -11 -14 2 -25 -1 -28 -9 -3 -8 -13
-14 -22 -14 -13 0 -14 -3 -5 -14 10 -11 8 -17 -6 -26 -17 -11 -17 -11 0 -6 10
3 28 6 39 6 16 0 18 3 9 13 -16 20 -4 27 48 28 35 2 39 3 16 7 -25 4 -27 6
-11 11 22 9 68 2 62 -8 -3 -4 5 -8 16 -8 25 -2 23 -1 -25 26 -44 25 -39 24
-56 5z"/>
<path d="M2466 1681 c-4 -5 0 -12 6 -15 20 -8 -21 -36 -51 -36 -19 0 -22 -3
-12 -9 8 -5 20 -7 28 -4 23 9 63 -6 57 -22 -4 -9 -24 -15 -57 -18 -39 -2 -31
-4 28 -5 59 -1 76 1 65 9 -11 8 -12 12 -2 16 23 9 12 23 -18 23 -16 0 -30 5
-30 10 0 6 5 10 11 10 6 0 9 9 6 19 -3 13 1 21 12 24 9 3 4 5 -11 6 -15 0 -29
-3 -32 -8z"/>
<path d="M3280 1683 c8 -4 21 -12 29 -20 16 -17 26 -10 18 12 -4 9 -18 15 -34
14 -16 0 -22 -3 -13 -6z"/>
<path d="M3376 1665 c17 -25 38 -32 49 -16 3 5 -5 11 -17 13 -13 2 -22 9 -20
16 1 6 -5 12 -13 12 -14 0 -13 -3 1 -25z"/>
<path d="M3428 1683 c7 -3 16 -2 19 1 4 3 -2 6 -13 5 -11 0 -14 -3 -6 -6z"/>
<path d="M2410 1671 c0 -5 9 -7 20 -4 11 3 20 7 20 9 0 2 -9 4 -20 4 -11 0
-20 -4 -20 -9z"/>
<path d="M2580 1666 c0 -10 8 -16 22 -16 12 0 19 1 17 3 -2 1 -12 9 -21 16
-15 12 -18 11 -18 -3z"/>
<path d="M2703 1663 c9 -2 23 -2 30 0 6 3 -1 5 -18 5 -16 0 -22 -2 -12 -5z"/>
<path d="M2991 1654 c0 -11 3 -14 6 -6 3 7 2 16 -1 19 -3 4 -6 -2 -5 -13z"/>
<path d="M3083 1663 c9 -2 23 -2 30 0 6 3 -1 5 -18 5 -16 0 -22 -2 -12 -5z"/>
<path d="M2676 1636 c3 -9 -2 -16 -13 -19 -10 -2 -4 -3 14 -2 17 2 34 1 37 -2
12 -12 -35 -34 -67 -32 -48 3 -67 -9 -67 -43 0 -16 4 -27 9 -24 5 4 17 3 26 0
16 -6 16 -8 1 -16 -9 -5 -21 -6 -26 -3 -6 4 -10 -16 -10 -53 l0 -59 31 5 c25
4 36 -2 66 -34 29 -32 35 -35 31 -16 -4 12 -2 22 3 22 4 0 6 7 3 15 -4 8 -2
15 4 15 5 0 12 9 15 20 4 16 -2 22 -31 30 -21 5 -42 10 -48 10 -6 0 -17 6 -24
14 -9 12 -4 17 30 26 23 6 58 10 78 8 32 -2 38 1 46 23 5 15 5 35 1 45 -6 16
-10 12 -18 -20 l-10 -38 -61 7 c-67 7 -82 15 -73 39 5 12 22 16 74 17 43 0 61
3 48 8 -19 8 -19 8 0 19 19 11 19 11 -2 12 -12 0 -27 9 -33 20 -12 23 -42 28
-34 6z m-5 -204 c53 -9 65 -32 16 -32 -64 0 -97 11 -97 32 0 14 5 18 19 13 10
-3 38 -9 62 -13z"/>
<path d="M2588 1613 c7 -3 16 -2 19 1 4 3 -2 6 -13 5 -11 0 -14 -3 -6 -6z"/>
<path d="M3345 1610 c3 -5 11 -10 16 -10 6 0 7 5 4 10 -3 6 -11 10 -16 10 -6
0 -7 -4 -4 -10z"/>
<path d="M2975 1590 c3 -5 8 -10 11 -10 2 0 4 5 4 10 0 6 -5 10 -11 10 -5 0
-7 -4 -4 -10z"/>
<path d="M2428 1213 c7 -3 16 -2 19 1 4 3 -2 6 -13 5 -11 0 -14 -3 -6 -6z"/>
<path d="M2670 1182 c0 -5 7 -13 16 -16 10 -4 14 -1 12 6 -5 15 -28 23 -28 10z"/>
<path d="M2505 1134 c-16 -8 -22 -12 -13 -10 10 3 20 1 23 -4 3 -5 -5 -11 -17
-13 -17 -3 -14 -5 10 -6 28 -1 32 2 32 24 0 14 -1 25 -2 25 -2 -1 -16 -8 -33
-16z"/>
<path d="M2588 1113 c7 -3 16 -2 19 1 4 3 -2 6 -13 5 -11 0 -14 -3 -6 -6z"/>
<path d="M3770 1060 c0 -5 7 -28 16 -50 9 -23 15 -43 13 -45 -2 -2 -23 10 -46
25 -23 16 -45 25 -48 21 -3 -5 2 -28 10 -51 22 -62 20 -64 -29 -30 -44 29 -66
37 -66 23 1 -13 130 -94 140 -88 6 3 2 27 -9 55 -11 28 -16 50 -13 50 3 0 23
-12 43 -26 21 -14 42 -23 47 -20 11 6 -38 146 -50 146 -5 0 -8 -4 -8 -10z"/>
<path d="M1395 1040 c-3 -6 1 -13 9 -16 23 -9 20 -21 -19 -74 -20 -27 -31 -51
-26 -54 5 -3 26 16 46 44 39 53 44 57 63 38 6 -6 15 -8 19 -4 7 7 -64 75 -79
76 -4 0 -10 -5 -13 -10z"/>
<path d="M2510 1020 c0 -7 7 -22 17 -32 15 -17 15 -19 -2 -38 -10 -11 -15 -23
-12 -27 4 -3 16 4 27 17 l20 23 25 -23 c28 -26 34 -17 8 12 -15 17 -15 19 0
36 28 30 20 49 -8 22 l-25 -23 -25 23 c-16 15 -25 19 -25 10z"/>
<path d="M1497 889 c-39 -62 -42 -95 -5 -49 19 23 21 23 46 9 27 -15 29 -22
17 -69 -6 -25 -6 -25 18 4 39 45 69 104 57 111 -5 3 -15 -5 -22 -19 -13 -31
-28 -33 -58 -8 -19 15 -21 22 -11 40 6 11 11 25 11 31 0 24 -17 8 -53 -50z"/>
<path d="M3522 893 c-21 -8 -44 -62 -36 -86 12 -39 35 -57 74 -57 55 0 88 46
69 97 -17 45 -62 64 -107 46z m70 -30 c20 -18 24 -63 6 -81 -30 -30 -88 -2
-88 43 0 48 47 70 82 38z"/>
<path d="M1665 793 c-16 -32 -31 -61 -33 -65 -2 -4 19 -19 47 -33 36 -18 51
-21 51 -12 0 7 -16 21 -35 30 -31 15 -34 20 -25 37 10 19 13 19 40 5 34 -17
40 -18 40 -6 0 5 -13 14 -30 21 -32 13 -34 18 -21 38 7 12 14 11 39 -2 34 -17
52 -20 52 -8 0 7 -78 52 -90 52 -3 0 -19 -26 -35 -57z"/>
<path d="M3390 815 c0 -3 9 -25 20 -47 11 -23 18 -43 16 -45 -2 -3 -28 9 -58
26 -60 34 -68 36 -68 20 0 -25 54 -129 67 -129 10 0 9 9 -7 40 -11 21 -20 43
-20 48 0 5 27 -5 59 -22 33 -17 62 -28 65 -25 9 8 -52 139 -64 139 -6 0 -10
-2 -10 -5z"/>
<path d="M3207 700 c-11 -27 -24 -50 -28 -50 -4 0 -10 16 -13 35 -4 19 -11 35
-16 35 -17 0 -10 -37 22 -122 12 -33 32 -37 25 -5 -3 12 -2 30 2 39 6 16 10
16 43 -8 20 -14 42 -24 49 -22 7 2 -6 17 -29 34 -46 32 -49 42 -27 84 10 20
12 30 4 30 -6 0 -20 -22 -32 -50z"/>
<path d="M1921 669 c-29 -33 -51 -63 -47 -66 4 -4 14 0 22 9 23 22 82 3 90
-29 13 -50 24 -20 18 50 -6 81 -10 97 -21 96 -4 0 -32 -27 -62 -60z m56 -36
c-3 -3 -15 -2 -27 2 l-22 7 24 25 23 25 3 -27 c2 -15 1 -29 -1 -32z"/>
<path d="M2095 668 c-20 -88 -25 -121 -20 -127 8 -8 25 20 25 42 0 14 5 17 20
13 11 -3 29 -9 40 -12 14 -4 20 -1 20 10 0 9 -12 16 -32 18 -25 2 -33 8 -33
23 0 20 13 23 62 14 31 -6 34 13 3 21 -80 21 -79 21 -85 -2z"/>
<path d="M2970 659 c0 -7 5 -40 12 -75 8 -44 16 -64 26 -64 8 0 12 6 9 14 -3
8 -11 41 -18 75 -6 34 -16 61 -20 61 -5 0 -9 -5 -9 -11z"/>
<path d="M2256 624 c-14 -74 -18 -124 -8 -124 5 0 13 11 16 25 7 26 46 37 46
12 0 -18 27 -53 35 -45 4 3 1 16 -5 28 -10 19 -9 24 9 37 24 16 28 55 8 71 -7
6 -31 14 -54 18 -39 6 -41 5 -47 -22z m88 -14 c18 -18 -3 -40 -39 -40 -37 0
-38 2 -29 38 6 19 11 22 33 17 14 -4 30 -10 35 -15z"/>
<path d="M2430 555 c0 -43 4 -75 10 -75 6 0 10 26 10 59 0 33 3 66 6 75 4 11
1 16 -10 16 -13 0 -16 -13 -16 -75z"/>
<path d="M2546 609 c-20 -16 -26 -29 -26 -58 0 -56 55 -95 100 -71 32 17 23
29 -16 23 -29 -5 -40 -2 -50 12 -34 46 9 110 56 85 16 -8 25 -9 33 -1 7 7 2
13 -17 21 -38 14 -50 13 -80 -11z"/>
<path d="M2722 562 c-12 -38 -22 -71 -22 -75 0 -16 19 -6 25 13 8 26 72 28 91
3 7 -10 15 -15 19 -11 10 9 -60 132 -77 136 -9 2 -21 -20 -36 -66z m56 13 c16
-35 16 -35 -14 -35 -20 0 -25 4 -20 16 3 9 6 22 6 30 0 22 16 16 28 -11z"/>
</g>
</svg>
